<svg width="1024" height="1024" viewBox="0 0 1024 1024" fill="none" xmlns="http://www.w3.org/2000/svg" xmlns:xlink="http://www.w3.org/1999/xlink">
<g clip-path="url(#clip0_3_2)">
<g filter="url(#filter0_di_3_2)">
<rect x="31" y="30" width="967" height="967" rx="182" fill="url(#paint0_linear_3_2)"/>
<rect x="31" y="30" width="967" height="967" rx="182"/>
<rect x="36.5" y="35.5" width="956" height="956" rx="176.5" stroke="url(#paint1_linear_3_2)" stroke-width="11"/>
</g>
<rect x="77" y="331" width="865" height="503" rx="55" fill="black" fill-opacity="0.34" stroke="#88A2BF" stroke-width="8"/>
<g filter="url(#filter1_d_3_2)">
<rect x="141" y="672" width="351" height="96" rx="38" fill="#04070A" fill-opacity="0.63" shape-rendering="crispEdges"/>
</g>
<path d="M152.225 682.258C158.267 677.05 166.594 671.645 174.642 670.834C187.314 669.566 202.334 670.116 215.197 670.134H289.763L400.321 670.18C417.703 670.203 435.682 669.908 452.998 670.371C462.537 670.626 474.446 676.813 480.719 684.158C492.575 698.044 492.827 714.52 491.399 731.928C490.85 743.717 484.324 753.866 475.334 761.015C473.664 762.342 471.137 764.097 469.682 765.476C455.287 771.813 447.578 771.228 431.878 770.689C430.26 769.751 396.726 768.836 391.317 768.135C411.478 767.509 432.22 768.969 452.346 767.474C457.165 767.115 469.943 763.338 472.872 759.596L472.572 758.292C483.758 745.756 486.962 740.959 486.508 723.343C486.644 712.006 487.116 703.235 481.178 693.184C468.172 671.159 447.394 674.374 425.341 674.003C421.518 673.94 416.146 674.16 412.567 673.082L249.128 673.03L205.566 672.926C187.239 672.879 168.614 670.632 154.519 684.651C153.423 685.757 152.358 686.893 151.323 688.057C150.381 688.526 149.508 689.17 148.627 689.76L148 689.511L148.204 686.916L152.225 682.258Z" fill="url(#paint2_linear_3_2)"/>
<path d="M413.232 673.142C420.743 673.02 428.254 672.974 435.766 673.014C450.919 673.037 463.938 672.736 475.967 683.968C486.668 693.961 488.362 707.01 488.338 720.749C488.319 731.396 488.588 738.633 483.095 748.186C482.605 749.037 482.737 748.915 482.726 749.969C486.519 748.383 488.64 734.47 492 731.952C491.452 743.733 484.931 753.877 475.948 761.021C474.279 762.347 471.755 764.101 470.301 765.479C455.917 771.813 448.214 771.228 432.528 770.69C430.91 769.752 397.404 768.837 392 768.136C412.144 767.511 432.869 768.97 452.979 767.476C457.794 767.117 470.562 763.343 473.488 759.603L473.189 758.3C484.365 745.771 487.566 740.978 487.113 723.372C487.249 712.042 487.721 703.276 481.787 693.231C468.792 671.22 448.031 674.433 425.996 674.062C422.176 673.999 416.808 674.219 413.232 673.142Z" fill="#144178"/>
<path d="M341.247 768.334C357.757 767.913 375.545 768.445 392.276 768.354C397.707 768.962 431.375 769.755 433 770.568C420.895 770.473 409.029 770.834 396.771 770.653C362.831 771.351 325.169 770.794 291.016 770.709C278.292 769.147 260.496 770.553 248 768.379C277.341 768.154 311.922 767.677 341.247 768.334Z" fill="#112533"/>
<path d="M341 768.195C357.554 767.696 375.39 768.325 392.167 768.219C397.612 768.937 431.371 769.876 433 770.838C420.862 770.725 408.964 771.153 396.673 770.939C393.103 769.888 386.448 770.268 382.597 770.226C373.883 770.125 348.044 770.411 341 768.195Z" fill="#041D3A"/>
<path d="M203.916 768.412C218.609 768.018 233.308 767.907 248.004 768.077C260.495 770.618 278.282 768.975 291 770.8C281.096 771.21 268.603 770.864 258.548 770.852L198.468 770.712C197.11 769.45 196.696 769.438 195 768.623L195.315 768.564L195.1 768.37C197.906 768.969 201.012 768.576 203.916 768.412Z" fill="#041D3A"/>
<path d="M146.001 742C152.876 753.708 158.135 760.011 171.079 764.688C174.213 765.815 180.589 766.114 183.97 766.149C203.686 766.361 223.497 766.284 243.214 766.272L352.506 765.991L423.782 765.926C441.665 765.803 457.218 768.661 472.701 758.162L473 759.482C470.075 763.274 457.313 767.1 452.501 767.464C432.401 768.978 411.686 767.499 391.553 768.133C374.91 768.238 357.217 767.616 340.795 768.109C311.625 767.341 277.228 767.898 248.042 768.162C233.417 767.992 218.789 768.104 204.168 768.497C201.278 768.661 198.187 769.054 195.394 768.456L195.608 768.649L195.295 768.708C196.983 769.524 197.395 769.535 198.746 770.797C178.151 771.226 165.727 772.388 150.36 756.501L152.772 755.527C149.686 751.448 145.931 747.141 146.001 742Z" fill="url(#paint3_linear_3_2)"/>
<path d="M152.465 756C166.578 766.98 174.578 768.528 192.769 768.351C195.21 768.323 203.083 768.209 205 768.573C202.046 768.733 198.886 769.114 196.031 768.533L196.25 768.721L195.93 768.778C197.656 769.569 198.077 769.58 199.458 770.803C178.406 771.219 165.708 772.345 150 756.944L152.465 756Z" fill="url(#paint4_linear_3_2)"/>
<path d="M273.186 696L280.036 696.104L280.138 711.785C298.648 697.826 307.079 722.277 298.836 737.03C291.745 744.398 289.299 741.841 280.83 740.218C278.795 739.824 276.274 741.702 273.528 740.294C272.583 729.639 273.197 707.489 273.186 696Z" fill="#BFE1AF"/>
<path d="M285.838 713C297.758 713.593 297.539 732.608 288.121 737C276.846 736.43 279.14 726.401 279.289 718.104C281.932 715.368 282.455 714.703 285.838 713Z" fill="#050F15"/>
<path d="M317.727 708.088C338.936 706.909 334.745 717.633 335.493 733.603C335.639 736.711 336.463 736.281 338.929 738.43C339.76 744.605 333.058 743.205 330.519 739.946C329.144 738.18 324.24 742.398 322.174 742.776C319.194 743.327 317.07 742.787 314.04 741.962C308.892 738.692 306.474 733.574 309.021 727.538C311.866 720.793 322.185 723.071 328.075 721.055C328.802 720.015 328.888 718.342 328.478 717.377C324.84 708.809 317.276 716.692 311.863 713.735C310.66 711.603 310.617 712.515 311.026 710.772C312.907 709.21 315.304 708.791 317.727 708.088Z" fill="#BFE1AF"/>
<path d="M319.613 726.208L328.964 726C329.039 732.234 329.444 733.261 323.944 736.946C314.618 737.702 311.624 730.279 319.613 726.208Z" fill="#050F15"/>
<path d="M384.065 696L390.73 696.018L390.851 712.566C404.461 700.415 411.336 711.172 410.918 725.78C410.765 731.13 411.553 735.833 410.129 741.212C408.258 742.47 406.653 742.099 404.864 740.965C403.394 738.313 404.028 728.82 404.054 725.081C404.141 713.318 400.059 708.903 390.803 718.462L390.72 741.059L389.921 741.717C387.647 741.752 386.457 741.94 384.322 741.253C383.84 737.831 384.041 729.284 384.044 725.41L384.065 696Z" fill="#BFE1AF"/>
<path d="M356.33 708.157C363.483 707.631 366.553 708.395 372.938 710.925L370.305 716.121C366.089 713.936 356.179 711.435 353.082 715.985C354.358 723.7 371.268 721.125 373.437 728.563C375.743 736.476 370.706 740.268 363.058 741.949C355.458 742.215 352.596 741.491 346 738.446C346.356 737.829 348.549 733.872 349.404 734.048C354.417 735.055 364.618 740.647 366.873 733.114C367.941 730.068 361.567 727.838 359.069 727.465C345.368 725.416 341.367 713.314 356.33 708.157Z" fill="#BFE1AF"/>
<path d="M197.429 699C205.135 703.709 212.849 708.417 220.568 713.108C223.446 714.853 225.201 716.196 224.982 719.615C222.561 723.626 203.803 734.185 198.304 737.746C197.604 737.988 197.118 737.947 196.341 738C194.158 736.681 193.082 736.32 193.251 733.676C196.131 729.091 210.108 721.916 215.511 718.822C209.509 715.279 196.832 708.027 192 703.65C194.022 701.561 195.081 700.786 197.429 699Z" fill="#AEF86F"/>
<path d="M925 342C929.844 345.281 934.971 351.178 938 356L936.762 355.801C933.841 353.42 928.651 346.664 925.32 343.847C925.214 343.231 925.107 342.615 925 342Z" fill="#91A9CF"/>
<path d="M147.998 687L147.795 689.605L148.419 689.855C149.297 689.262 150.167 688.617 151.105 688.146C143.063 699.711 142.675 706.474 143.058 720.506C143.212 726.163 143.519 731.81 144.414 737.456C144.678 739.125 145.253 741.021 145.247 742.631C145.177 747.725 148.922 751.993 152 756.035L149.595 757L147.123 754.098C139.914 742.469 139.123 735.555 139.01 722.204C138.886 707.503 139.784 699.438 147.998 687Z" fill="url(#paint5_linear_3_2)"/>
<path d="M110.714 579L119.697 579.587C119.774 588.772 119.718 598.319 119.939 607.468C119.911 627.443 120.209 648.627 119.696 668.516C120.072 677.481 119.839 686.919 119.746 695.93C117.298 695.93 112.317 696.288 110.392 695.383C110.261 678.167 110.246 660.95 110.347 643.733C109.588 626.723 110.295 603.443 110.404 585.973L110.714 579Z" fill="#F8E961"/>
<path d="M110.062 644C110.764 647.884 110.614 656.013 110.693 660.287C110.907 669.012 111.081 677.742 111.215 686.467C124.133 683.614 115.772 679.111 118.806 668.656C119.158 677.576 118.94 686.965 118.853 695.931C116.563 695.931 111.904 696.286 110.104 695.387C109.981 678.258 109.967 661.129 110.062 644Z" fill="#FED768"/>
<path d="M110.012 696C112.008 696.918 117.175 696.555 119.715 696.555L119.701 759.334C119.68 772.795 119.433 788.05 120 801.435C116.811 805.234 114.394 804.041 110 802.738C110.709 798.167 110.382 774.73 110.329 768.37C110.129 744.436 110.595 719.87 110.012 696Z" fill="#FE2E2C"/>
<path d="M412.067 132.034C417.22 131.922 422.694 132.115 427.873 132.209C430.062 135.344 432.44 139.029 434.425 142.31C450.419 168.74 469.111 194.938 484.133 221.851L484.071 132.359C491.366 132.104 497.687 132.201 504.994 132.392L505 254.671C501.729 254.923 498.058 254.905 494.748 254.971L480.289 254.747C473.449 245.333 465.493 231.685 459.027 221.544C446.807 202.686 434.795 183.69 422.996 164.559C423.488 192.22 424.176 227.317 423.047 254.654C416.134 255.158 409.192 255.111 402.287 254.515C402.415 249.791 402.486 244.94 402.391 240.215C401.674 204.473 403.472 168.027 402 132.345L412.067 132.034Z" fill="#FBFDFE"/>
<path d="M110.085 463.704C110.222 461.64 110.124 460.767 111.079 458.936C112.478 457.986 112.525 457.961 114.203 458.018C116.017 458.075 117.833 458.114 119.648 458.133C119.649 469.675 119.789 482.28 119.482 493.807C119.691 503.418 119.749 515.608 119.453 525.262C119.736 540.358 118.977 559.619 119.899 574.041C119.902 584.638 120.2 597.555 119.758 608C119.537 598.692 119.593 588.979 119.515 579.636L110.507 579.038L110.196 586.132L110.118 578.792L110.147 529.333C110.01 513.218 109.996 497.104 110.105 480.99C109.922 475.201 110.02 469.491 110.085 463.704Z" fill="#40FBB5"/>
<path d="M110.029 530.035L110.744 526.418L111.085 527.033L110.625 527.289C112.231 528.496 109.303 542.628 112.485 548.404C114.081 549.536 114.027 549.397 116 549.496C121.908 546.105 116.926 530.761 119.447 526C119.733 540.961 118.965 560.051 119.898 574.344C119.9 584.847 120.203 597.648 119.755 608C119.531 598.775 119.588 589.149 119.51 579.889L110.394 579.297L110.079 586.327L110 579.053L110.029 530.035Z" fill="url(#paint6_linear_3_2)"/>
<path d="M110.079 463.734C110.206 461.66 110.116 460.782 111.003 458.941C112.304 457.986 112.348 457.961 113.907 458.018C115.594 458.076 117.282 458.114 118.97 458.134C118.97 469.737 119.101 482.411 118.815 494C114.693 483.262 124.969 480.024 111.137 472.739C111.153 474.51 111.366 489.58 111.073 490.161L111.173 489.144L110.689 488.736C110.424 486.183 110.27 483.675 110.097 481.114C109.928 475.294 110.019 469.553 110.079 463.734Z" fill="#8DF9FD"/>
<path d="M110 461.621C110.63 452.304 110.19 439.598 110.243 429.948C110.379 405.25 109.978 380.454 110.116 355.751C110.13 353.198 109.915 351.123 111.527 349.544C113.835 348.952 116.935 348.622 119.09 349.741C120.445 354.715 119.89 383.065 119.876 389.598L119.857 458.519C118.013 458.5 116.169 458.462 114.326 458.406C112.622 458.35 112.574 458.375 111.153 459.309C110.184 461.111 110.283 461.97 110.143 464L110 461.621Z" fill="#3A9BE6"/>
<path d="M627.187 166.159C635.61 166.03 643.583 165.917 652 166.19C641.182 180.264 631.148 195.218 620.503 209.494C624.873 214.844 651.177 250.565 651.781 253.152L650.975 253.613C643.226 254.016 635.46 254.104 627.705 253.878C621.332 245.808 613.169 233.754 607.239 225.285C600.791 234.972 594.101 244.49 587.17 253.83C578.776 254.039 570.382 253.905 562 253.43C572.207 238.936 583.819 223.815 594.355 209.473C591.113 204.377 586.185 198.229 582.53 193.247C575.995 184.366 569.599 175.387 563.336 166.31C571.378 165.996 580.152 166.078 588.246 166C594.516 174.017 601.701 184.906 607.659 193.4C613.272 185.06 620.969 173.933 627.187 166.159Z" fill="#FBFDFE"/>
<path d="M292.458 120C301.153 124.226 307.233 129.308 312.379 137.578C306.997 148.818 297.207 163.986 290.769 175.424C305.572 175.581 320.375 175.61 335.177 175.509C339.082 185.71 339.295 191.139 338.816 202.191C323.217 202.442 307.667 202.253 292.08 202.362C290.91 204.069 284.976 213.249 284.287 214C280.244 213.564 268.423 213.573 266.067 212.796C268.993 207.943 271.85 202.963 274.714 198.066C270.032 193.356 262.968 185.163 260 179.428C262.682 172.554 266.431 167.444 268.99 161.267L268.171 160.177L269.361 159.49C271.289 158.591 289.289 125.179 292.458 120Z" fill="#2E81DA"/>
<path d="M122.015 181.187C143.319 181.15 167.854 180.586 188.837 181.617C185.589 185.948 182.386 191.274 179.476 195.904C181.656 194.783 183.94 193.823 186.187 192.832C188.483 198.169 191.356 203.572 194 208.771C187.538 221.028 174.645 240.435 166.761 252.352C163.744 257.237 161.819 260.049 157.717 264C150.434 259.961 144.573 253.93 139.682 247.291C145.022 237.178 157.638 217.301 164.205 207.739C149.792 207.815 135.379 207.817 120.966 207.749C117.329 197.317 119.368 191.191 122.015 181.187Z" fill="url(#paint7_linear_3_2)"/>
<path d="M199.909 227C205.639 227.032 210.662 227.291 216.357 227.637C229.066 249.217 241.614 270.893 254 292.663C246.663 299.711 237.304 298.744 227.535 299C223.604 292.18 219.358 283.575 215.62 276.495L208.7 264.04C205.659 270.395 195.123 286.959 190.967 292.56C182.641 292.793 170.371 291.958 166 283.482C166.088 281.165 196.474 231.812 199.909 227Z" fill="#3A9BE6"/>
<path d="M263.722 215.743C264.429 214.825 265.14 213.911 265.857 213C268.21 213.773 280.023 213.765 284.063 214.198L283.768 215.446C297.8 216.101 312.706 215.721 326.88 215.966C327.167 229.353 327.509 230.767 320.533 242.16C306.619 242.402 292.3 241.799 278.429 242.476C284.792 254.023 292.065 265.3 298.129 276.879C291.496 282.03 285.898 285.016 278.575 289C276.546 285.868 274.578 282.599 272.809 279.315C264.823 264.484 255.535 249.991 248 234.958C250.474 230.522 253.319 225.036 256.208 220.909C259.208 216.622 259.271 216.435 263.722 215.743Z" fill="#2E81DA"/>
<path d="M264 215C264.73 214.331 265.464 213.664 266.204 213C268.634 213.563 280.829 213.557 285 213.874L284.695 214.784C277.796 214.813 270.897 214.885 264 215Z" fill="#466D92"/>
<path d="M181.873 100C184.197 101.771 213.217 150.809 217 157.153C214.755 160.74 212.962 164.107 210.964 167.841C191.749 168.055 172.224 167.89 152.985 167.907L135.134 168C134.595 157.11 135.475 155.002 141.616 145.763C153.599 145.291 166.362 145.325 178.431 145.146C172.293 134.73 165.499 124.383 159.655 113.869C167.566 106.426 171.905 104.28 181.873 100Z" fill="url(#paint8_linear_3_2)"/>
<path d="M203 103.803C209.906 95.7073 215.377 95.6546 225.35 96.192C229.341 100.187 240.182 118.131 244.096 124.116C248.057 115.195 253.368 105.303 257.708 96.2914C270.586 96.4183 276.228 94.9413 286 103.548C279.346 117.078 269.493 134.086 261.861 147.256C264.541 151.893 267.132 155.818 270.089 160.264L268.89 160.951C261.478 161.229 251.745 160.28 244.412 159.178C235.435 157.829 229.642 145.38 224.922 138.13C217.471 126.778 210.164 115.336 203 103.803Z" fill="#3A9BE6"/>
<g filter="url(#filter2_d_3_2)">
<path d="M812.27 784.799C814.547 779.319 822.043 762.34 827.035 760.916C852.208 753.74 837.651 773.445 833.165 781.557C827.529 794.044 820.254 807.485 814.1 819.815C811.456 825.109 805.686 836.998 802.746 841.716C793.971 860.41 784.284 879.086 774.592 897.309C771.727 902.701 759.315 903.678 756.427 898.122C756.456 894.566 778.572 850.619 781.896 845.395C783.471 840.996 793.378 821.866 796.028 816.852C800.648 808.095 807.447 792.882 812.27 784.799Z" fill="#B0A8BD"/>
<path d="M812.27 784.799C814.547 779.319 822.043 762.34 827.035 760.916C852.208 753.74 837.651 773.445 833.165 781.557C827.529 794.044 820.254 807.485 814.1 819.815C811.456 825.109 805.686 836.998 802.746 841.716C793.971 860.41 784.284 879.086 774.592 897.309C771.727 902.701 759.315 903.678 756.427 898.122C756.456 894.566 778.572 850.619 781.896 845.395C783.471 840.996 793.378 821.866 796.028 816.852C800.648 808.095 807.447 792.882 812.27 784.799Z" fill="url(#paint9_linear_3_2)" fill-opacity="0.31"/>
<path d="M781.896 845.395C782.628 849.916 770.094 865.634 772.256 870.242C778.131 871.253 786.539 858.498 792.855 857.22C796.627 856.453 797.992 844.198 802.746 841.716C793.971 860.41 784.284 879.086 774.592 897.309C771.727 902.701 759.315 903.678 756.427 898.122C756.456 894.566 778.572 850.619 781.896 845.395Z" fill="#B0A8BD"/>
<path d="M781.896 845.395C782.628 849.916 770.094 865.634 772.256 870.242C778.131 871.253 786.539 858.498 792.855 857.22C796.627 856.453 797.992 844.198 802.746 841.716C793.971 860.41 784.284 879.086 774.592 897.309C771.727 902.701 759.315 903.678 756.427 898.122C756.456 894.566 778.572 850.619 781.896 845.395Z" fill="url(#paint10_linear_3_2)" fill-opacity="0.31"/>
<path d="M812.269 784.799C814.547 779.319 822.043 762.34 827.035 760.916C852.207 753.74 837.651 773.445 833.165 781.557L832.7 780.557C833.81 776.519 835.914 776.001 836.042 772.945C833.99 770.696 828.371 770.865 825.262 770.708C823.659 770.626 822.049 770.615 820.439 770.679C818.098 775.548 815.646 780.034 813.071 784.77C812.804 784.782 812.537 784.787 812.269 784.799Z" fill="#B0A8BD"/>
<path d="M812.269 784.799C814.547 779.319 822.043 762.34 827.035 760.916C852.207 753.74 837.651 773.445 833.165 781.557L832.7 780.557C833.81 776.519 835.914 776.001 836.042 772.945C833.99 770.696 828.371 770.865 825.262 770.708C823.659 770.626 822.049 770.615 820.439 770.679C818.098 775.548 815.646 780.034 813.071 784.77C812.804 784.782 812.537 784.787 812.269 784.799Z" fill="url(#paint11_linear_3_2)" fill-opacity="0.31"/>
</g>
<path d="M77.5905 562.799C77.1784 560.401 77.3502 546.674 77.3595 543.794L77.3734 505.28C77.3705 485.952 77.5353 465.082 77.7263 445.814C77.8551 432.809 74.9082 386.914 80.0412 376C80.1219 380.556 78.5033 385.446 78.7128 389.627C80.0047 415.449 79.1754 441.356 79.4162 467.186C79.4661 472.548 78.725 493.784 80.0134 497.927C80.596 506.07 80.1689 519.895 80.1492 528.477L80.0784 586.031L80.1033 643.213C80.1236 651.505 80.5827 665.504 80.0406 673.291C80.5148 678.842 80.2234 688.411 80.195 694.218L80.0522 740.002C80.0337 757.479 78.8527 779.643 87.589 795.187C94.715 807.636 106.562 816.677 120.446 820.265C132.597 823.366 159.624 822.274 173.535 822.263L251.209 822.245L582.777 822.251C609.704 822.251 636.928 821.943 663.815 822.727C666.148 822.797 675.329 822.913 677 823.389C654.785 825.433 627.753 824.486 604.923 824.678L449.334 824.759L242.978 824.823C206.44 824.829 169.721 825.369 133.37 824.533C103.811 823.853 82.3225 803.513 78.526 774.649C77.1767 764.395 77.627 754.326 77.6468 744.037L77.6874 696.836L77.703 608.967C77.681 594.073 77.0107 577.42 77.5905 562.799Z" fill="#2D5177"/>
<path d="M77.5338 563.398C77.1613 560.992 77.3166 547.222 77.325 544.333L77.3376 505.695C77.335 486.304 77.4839 465.368 77.6565 446.038C77.773 432.991 75.109 386.949 79.7493 376C79.8222 380.571 78.359 385.476 78.5484 389.671C79.7162 415.575 78.9665 441.566 79.1843 467.479C79.2294 472.858 78.5594 494.162 79.7241 498.318C80.2508 506.487 79.8647 520.356 79.8469 528.966L79.7829 586.704L79.8054 644.07C79.8238 652.389 80.2388 666.433 79.7488 674.244C77.8832 678.299 80.181 738.344 78.6581 750C77.9729 734.546 78.3968 715.906 78.402 700.248L78.412 614.881C78.4173 606.72 78.9723 567.604 77.5338 563.398Z" fill="#30667F"/>
<g filter="url(#filter3_d_3_2)">
<path d="M695.529 844.511C691.659 842.692 682.629 836.091 682.031 831.419C681.554 827.701 691.159 821.245 694.001 819.176C709.458 807.944 724.601 796.148 740.465 785.502C742.876 783.881 745.886 785.084 748.042 786.624C755.747 792.15 748.553 800.738 743.097 804.562C739.773 806.938 736.327 809.483 732.945 811.912L705.623 831.35L706.581 832.576C714.043 837.87 742.365 858.219 747.577 863.798L748.699 865.215C749.495 869.649 747.362 876.279 741.987 877.046C738.297 876.988 732.434 872.299 729.726 870.155C718.79 861.462 706.117 853.477 695.529 844.511Z" fill="#B0A8BD"/>
<path d="M695.529 844.511C691.659 842.692 682.629 836.091 682.031 831.419C681.554 827.701 691.159 821.245 694.001 819.176C709.458 807.944 724.601 796.148 740.465 785.502C742.876 783.881 745.886 785.084 748.042 786.624C755.747 792.15 748.553 800.738 743.097 804.562C739.773 806.938 736.327 809.483 732.945 811.912L705.623 831.35L706.581 832.576C714.043 837.87 742.365 858.219 747.577 863.798L748.699 865.215C749.495 869.649 747.362 876.279 741.987 877.046C738.297 876.988 732.434 872.299 729.726 870.155C718.79 861.462 706.117 853.477 695.529 844.511Z" fill="url(#paint12_linear_3_2)" fill-opacity="0.31"/>
<path d="M706.581 832.576C714.043 837.87 742.365 858.219 747.577 863.798L748.699 865.215C749.495 869.649 747.362 876.279 741.987 877.046C738.297 876.988 732.434 872.299 729.726 870.155C718.79 861.462 706.117 853.478 695.529 844.511C699.132 844.965 702.851 849.201 706.936 851.299C709.661 850.665 710.277 848.469 711.986 847.504C712.997 846.929 715.6 845.9 717.099 845.11L717.198 844.238C714.217 842.268 711.672 840.665 708.947 838.323L709.516 838.143C708.145 836.603 707.43 835.754 706.244 834.075L706.581 832.576Z" fill="#B0A8BD"/>
<path d="M706.581 832.576C714.043 837.87 742.365 858.219 747.577 863.798L748.699 865.215C749.495 869.649 747.362 876.279 741.987 877.046C738.297 876.988 732.434 872.299 729.726 870.155C718.79 861.462 706.117 853.478 695.529 844.511C699.132 844.965 702.851 849.201 706.936 851.299C709.661 850.665 710.277 848.469 711.986 847.504C712.997 846.929 715.6 845.9 717.099 845.11L717.198 844.238C714.217 842.268 711.672 840.665 708.947 838.323L709.516 838.143C708.145 836.603 707.43 835.754 706.244 834.075L706.581 832.576Z" fill="url(#paint13_linear_3_2)" fill-opacity="0.31"/>
<path d="M706.582 832.576C714.043 837.87 742.365 858.219 747.577 863.798L746.624 864.164C743.771 863.67 715.885 841.536 709.516 838.143C708.145 836.603 707.43 835.754 706.245 834.075L706.582 832.576Z" fill="#B0A8BD"/>
<path d="M706.582 832.576C714.043 837.87 742.365 858.219 747.577 863.798L746.624 864.164C743.771 863.67 715.885 841.536 709.516 838.143C708.145 836.603 707.43 835.754 706.245 834.075L706.582 832.576Z" fill="url(#paint14_linear_3_2)" fill-opacity="0.31"/>
</g>
<g filter="url(#filter4_d_3_2)">
<path d="M851.383 789.831C853.381 786.455 857.879 782.783 861.801 785.578C875.904 795.631 889.304 806.706 903.256 816.98C906.626 819.478 915.075 825.405 917.289 828.27L918.196 829.008C918.655 831.315 918.585 832.954 917.353 835.034C915.116 838.828 861.813 876.779 858.908 877.041C856.624 877.25 854.515 875.693 852.969 874.176C851.324 872.555 850.04 870.352 850.058 867.981C850.063 866.848 850.581 865.791 851.313 864.977C853.748 861.363 890.199 834.825 895.778 831.513C883.156 823.296 870.878 812.697 858.518 803.928C854.689 801.209 847.472 794.852 851.383 789.831Z" fill="#B0A8BD"/>
<path d="M851.383 789.831C853.381 786.455 857.879 782.783 861.801 785.578C875.904 795.631 889.304 806.706 903.256 816.98C906.626 819.478 915.075 825.405 917.289 828.27L918.196 829.008C918.655 831.315 918.585 832.954 917.353 835.034C915.116 838.828 861.813 876.779 858.908 877.041C856.624 877.25 854.515 875.693 852.969 874.176C851.324 872.555 850.04 870.352 850.058 867.981C850.063 866.848 850.581 865.791 851.313 864.977C853.748 861.363 890.199 834.825 895.778 831.513C883.156 823.296 870.878 812.697 858.518 803.928C854.689 801.209 847.472 794.852 851.383 789.831Z" fill="url(#paint15_linear_3_2)" fill-opacity="0.31"/>
<path d="M918.196 829.008C918.655 831.315 918.585 832.954 917.353 835.034C915.116 838.828 861.813 876.779 858.908 877.041C856.624 877.25 854.515 875.692 852.969 874.176C851.324 872.555 850.04 870.352 850.058 867.981C850.063 866.848 850.581 865.791 851.313 864.977C853.748 861.363 890.199 834.825 895.778 831.512L896.643 832.169C894.639 835.011 889.252 837.474 888.09 839.072C887.125 842.89 877.683 847.312 875.288 850.061C881.088 849.032 890.228 854.21 894.36 851.054C902.332 844.953 915.441 839.078 918.196 829.008Z" fill="#B0A8BD"/>
<path d="M918.196 829.008C918.655 831.315 918.585 832.954 917.353 835.034C915.116 838.828 861.813 876.779 858.908 877.041C856.624 877.25 854.515 875.692 852.969 874.176C851.324 872.555 850.04 870.352 850.058 867.981C850.063 866.848 850.581 865.791 851.313 864.977C853.748 861.363 890.199 834.825 895.778 831.512L896.643 832.169C894.639 835.011 889.252 837.474 888.09 839.072C887.125 842.89 877.683 847.312 875.288 850.061C881.088 849.032 890.228 854.21 894.36 851.054C902.332 844.953 915.441 839.078 918.196 829.008Z" fill="url(#paint16_linear_3_2)" fill-opacity="0.31"/>
<path d="M895.777 831.513L896.643 832.169C894.638 835.011 889.252 837.475 888.09 839.073C882.807 843.088 856.275 863.188 851.313 864.977C853.747 861.363 890.199 834.825 895.777 831.513Z" fill="#B0A8BD"/>
<path d="M895.777 831.513L896.643 832.169C894.638 835.011 889.252 837.475 888.09 839.073C882.807 843.088 856.275 863.188 851.313 864.977C853.747 861.363 890.199 834.825 895.777 831.513Z" fill="url(#paint17_linear_3_2)" fill-opacity="0.31"/>
<path d="M851.382 789.831C853.381 786.455 857.879 782.783 861.801 785.578C875.904 795.631 889.304 806.706 903.256 816.98C906.626 819.478 915.075 825.405 917.289 828.27C912.681 828.009 883.493 804.202 877.752 800.239C871.918 795.52 866.938 789.151 860.075 785.839C856.874 784.293 854.392 788.931 851.382 789.831Z" fill="#B0A8BD"/>
<path d="M851.382 789.831C853.381 786.455 857.879 782.783 861.801 785.578C875.904 795.631 889.304 806.706 903.256 816.98C906.626 819.478 915.075 825.405 917.289 828.27C912.681 828.009 883.493 804.202 877.752 800.239C871.918 795.52 866.938 789.151 860.075 785.839C856.874 784.293 854.392 788.931 851.382 789.831Z" fill="url(#paint18_linear_3_2)" fill-opacity="0.31"/>
</g>
<path d="M527.235 165.012C534.492 164.993 541.529 164.96 548.786 165.241L548.878 222.123C548.889 231.347 549.264 244.765 548.641 253.668C541.564 254 534.284 254.224 527.218 253.633C526.78 243.808 527.131 231.144 527.172 221.165C527.293 202.447 527.31 183.729 527.235 165.012Z" fill="#FBFDFE"/>
<path d="M174.208 410.155C176.109 410.051 177.743 409.72 179.404 410.533C181.831 413.558 180.713 420.47 180.757 424.668C200.281 413.427 207.199 437.827 197.934 450.94C190.413 458.082 188.855 453.875 180.943 452.681C178.316 453.924 176.803 455.13 174.215 453.538C173.853 451.21 174.055 442.797 174.067 439.856L174.208 410.155Z" fill="#FED768"/>
<path d="M186.581 426C197.477 426.384 197.365 444.555 188.733 450C183.864 449.262 183.668 448.614 180.216 444.808C180.072 440.376 180.067 435.748 180 431.297C182.223 428.576 183.574 427.565 186.581 426Z" fill="#112533"/>
<path d="M760.187 503.342C767.841 503.116 782.668 501.23 786.182 509.492C789.391 517.035 785.578 523.221 778.93 526.21C782.587 532.223 785.946 538.42 789 544.778C786.199 544.902 783.128 545.661 781.299 543.402C779.068 538.853 775.393 530.189 771.764 527.301C769.642 526.998 769.785 526.951 767.778 527.698C764.23 531.909 767.56 537.424 766.3 544.155C764.661 545.306 762.113 545.098 760.606 543.758C759.554 540.502 760.192 508.697 760.187 503.342Z" fill="#A3E4FB"/>
<path d="M767 509.008C774.19 508.903 783.912 509.697 778.355 519.894C774.466 522.486 771.78 521.96 767.097 521.949L767 509.008Z" fill="#041D3A"/>
<path d="M291.74 512.012C312.163 511.328 315.261 539.202 296.732 544.955C274.761 546.312 273.336 516.277 291.74 512.012Z" fill="#BFE1AF"/>
<path d="M294.169 517C305.708 518.552 305.551 534.937 295.959 540C282.654 539.23 283.316 519.561 294.169 517Z" fill="#112533"/>
<path d="M633.109 497.032C635.366 497.068 635.366 496.721 637.062 497.69C637.369 499.59 637.346 500.563 637.357 502.454C639.718 504.623 643.7 503.173 645.564 506.306C645.373 508.58 645.738 508.243 644.603 509.856C641.443 510.703 639.499 507.309 636.576 508.817C635.922 510.9 636.148 517.565 636.159 520.135C641.16 522.299 646.085 524.544 647.636 530.339C648.359 532.938 647.995 535.717 646.629 538.037C644.163 542.167 639.909 543.49 635.563 544.482C635.476 546.797 635.511 548.16 635.002 550.399C633.335 552.133 633.63 551.582 630.591 552C630.493 550.213 630.771 546.872 630.869 544.958C629.833 544.818 628.797 544.65 627.767 544.453C624.439 543.803 621.823 543.618 620 540.845C620.336 538.722 620.376 538.756 621.273 536.935C621.939 536.97 629.798 539.215 631.448 539.615L631.842 525.594C630.904 525.205 629.978 524.799 629.052 524.382C625.492 522.769 622.292 520.692 620.961 516.736C620.139 514.334 620.411 511.689 621.707 509.508C624.294 505.064 628.137 504.049 632.605 502.75L633.109 497.032Z" fill="#A3E4FB"/>
<path d="M635.306 527C641.398 529.375 642.418 531.975 639.241 536.878L636.561 538L635.424 537.655C634.568 535.313 635.267 530.043 635.306 527Z" fill="#041D3A"/>
<path d="M631.5 509C632.328 510.502 632.101 516.57 631.015 518L629.445 517.751C625.501 513.434 626.43 511.515 631.5 509Z" fill="#041D3A"/>
<path d="M531.145 513.001C550.983 512.774 552.496 541.555 534.037 546C513.866 546.064 512.522 517.225 531.145 513.001Z" fill="#FDBD7E"/>
<path d="M529.345 517.01C541.563 516.51 541.264 534.707 533.585 539.934C522.026 541.195 521.312 524.165 529.345 517.01Z" fill="#041D3A"/>
<path d="M218.61 421.096C241.294 419.614 232.31 435.521 235.444 447.943C237.182 449.146 237.952 449.478 239 451.311C238.265 457.725 232.885 454.397 230.085 451.617L229.518 451.047C223.794 451.359 225.274 457.186 213.759 454.048C209.264 450.847 206.331 445.599 209.043 440.154C212.681 432.852 221.64 435.806 227.717 433.886C228.367 432.091 228.262 432.754 227.953 430.672C226.958 423.967 217.473 426.901 213.045 428.452C211.641 426.46 210.6 425.76 211.451 423.423C213.341 421.906 216.137 421.619 218.61 421.096Z" fill="#FED768"/>
<path d="M219.314 439.195L228 439C227.758 444.729 228.073 446.637 223.269 449.811C214.606 451.344 211.88 443.174 219.314 439.195Z" fill="#112533"/>
<path d="M187.279 512.035C199.905 511.405 202.468 519.288 203 530.155L181.412 530.206C184.627 540.357 189.107 541.446 198.858 538.106L199.441 537.808L200.452 538.479C201.433 540.69 201.451 539.664 200.848 541.641C197.079 545.507 188.051 545.926 183.793 543.462C170.691 535.872 172.54 516.452 187.279 512.035Z" fill="#BFE1AF"/>
<path d="M186.199 517.205C188.923 517.003 191.449 516.493 193.66 518.572C195.793 520.582 198.448 522.862 196.055 525.849L193.789 526L181 525.956C182.496 521.665 182.926 520.153 186.199 517.205Z" fill="#112533"/>
<path d="M431.599 513C444.86 513.006 446.546 519.803 447 530.549C442.782 530.634 429.24 530.158 426.152 530.958C425.415 532.07 424.979 532.774 425.669 534.152C429.361 541.54 437.626 539.798 443.06 538.079L443.455 538.01L444.918 539.009C445.498 541.125 445.618 540.167 444.866 541.999C439.921 545.96 429.954 545.909 425.132 542.385C413.548 533.925 416.336 515.78 431.599 513Z" fill="#FDBD7E"/>
<path d="M429.921 517.104C432.576 516.984 434.843 516.612 436.918 518.699C439.031 520.824 441.367 522.816 439.019 525.861L436.532 526L425 525.962C426.095 521.328 426.518 520.13 429.921 517.104Z" fill="#112533"/>
<path d="M404.588 503.182L410.548 503.1C410.776 511.086 411.396 536.273 410.626 543.147C408.861 544.282 408.369 543.888 405.966 544L405.502 543.871C404.084 541.777 404.688 528.128 404.707 524.67L391.068 524.558L391.196 543.924L385.104 543.788C385.137 539.007 384.641 504.511 385.563 503.17C387.247 503.047 388.569 502.706 389.966 503.576C392.097 507.204 391.065 514.796 391.139 519.989C395.667 519.742 400.199 519.566 404.732 519.448L404.588 503.182Z" fill="#FDBD7E"/>
<path d="M280 410.155C282.182 410.048 283.908 409.671 285.726 410.712C288.229 413.965 286.838 421.077 286.682 425.881C310.141 408.377 306.854 441.037 306.829 453.785C304.673 453.831 303.074 454.106 301.187 453.161C298.71 450.031 300.017 442.107 299.99 437.111C300.175 426.071 295.443 423.583 286.924 431.469L286.663 453.867L280.024 454L280 410.155Z" fill="#FED768"/>
<path d="M655.036 503.156C657.549 503.079 658.399 502.93 660.79 503.53C664.489 509.021 658.197 535.675 664.084 538.664C685.095 549.329 672.564 509.645 677.953 503.115C679.979 502.877 680.088 503.014 682.016 503.483C683.127 505.141 682.682 506.198 682.693 508.67C682.612 515.753 684.65 537.042 679.191 541.706C668.9 550.506 654.828 545.396 655.002 529.894C655.1 521.57 655.013 511.706 655.036 503.156Z" fill="#A3E4FB"/>
<path d="M246.032 500L252.241 500.413L252.353 516.501C274.943 498.968 271.923 532.078 271.803 544.97L265.465 544.893L265.474 527.17C265.685 514.859 259.567 515.665 252.521 522.731C252.74 529.773 252.565 537.875 252.576 545L246 544.917L246.032 500Z" fill="#BFE1AF"/>
<path d="M726.081 503.266C731.534 503.166 745.791 502.455 750.23 503.876C750.597 505.926 750.689 504.937 749.807 506.933C746.587 509.089 737.199 508.236 732.456 508.437L732.559 520.574C735.676 520.58 744.319 520.165 746.874 520.692C747.848 521.888 747.899 521.782 747.888 523.742C747.859 528.38 736.535 523.476 732.628 526.668L732.468 528.623L732.559 539.622C737.337 539.752 748.128 538.082 750.946 541.618C750.918 543.804 751.336 543.016 750.219 544.355C744.909 545.456 732.118 544.834 726.276 544.74C725.829 531.194 726.052 516.86 726.081 503.266Z" fill="#A3E4FB"/>
<path d="M701.532 502.143C708.21 501.572 710.659 502.708 716.459 505.564C715.564 507.617 715.358 508.058 714.165 509.92C709.581 508.938 700.625 504.255 697.659 509.86C694.659 515.108 699.914 518.476 704.412 519.606C721.663 523.95 725.616 541.687 705.289 545.971C698.565 546.221 695.772 544.864 690 541.812C690.815 539.92 691.107 538.974 692.415 537.367C697.269 538.444 706.81 544.079 710.757 538.022C712.971 534.511 712.581 530.001 708.141 528.157C699.019 524.36 686.294 521.796 692.002 508.123C693.454 504.648 698.118 503.054 701.532 502.143Z" fill="#A3E4FB"/>
<path d="M535.39 131.003C542.12 130.9 548.29 133.12 550.458 139.986C551.434 143.05 551.083 146.375 549.475 149.173C547.14 153.237 543.811 154.65 539.523 155.908C536.492 156.137 533.99 156.002 531.191 154.747C528.219 153.412 525.908 150.978 524.771 147.979C523.568 144.765 523.782 141.209 525.349 138.153C527.653 133.69 530.822 132.362 535.39 131.003Z" fill="#FBFDFE"/>
<path d="M256.904 421C263.023 421.009 264.752 421.537 270.346 423.924C269.428 425.77 269.003 426.596 267.85 428.287C263.853 427.483 250.61 422.535 253.419 431.934C259.125 436.424 278.461 437.215 269.803 450.049C267.143 453.992 263.52 454.368 259.191 455C257.221 454.949 255.257 454.782 253.307 454.5C250.275 454.03 248.053 453.301 246.245 450.758C245.913 448.368 245.674 449.461 247.227 447.391C249.653 446.799 264.413 454.755 264.945 445.012C262.174 439.807 248.574 440.145 246.494 432.605C244.442 425.165 251.005 422.301 256.904 421Z" fill="#FED768"/>
<path d="M484.035 500.128C489.263 499.903 495.066 500.04 500.34 500.055C500.423 509.018 500.691 519.079 500.501 527.951C500.108 546.698 504.25 537.307 509.901 540.057C511.333 541.921 510.846 541.88 511 544.723C501.35 545.259 494.121 546.237 494.077 534.249C494.041 524.555 494.133 514.826 494.217 505.133C490.829 504.83 487.973 505.622 485.095 504.504C483.594 502.698 484.093 503.082 484.035 500.128Z" fill="#FDBD7E"/>
<path d="M452 500.098C457.343 499.873 462.78 500.088 468.134 500.217C468.421 511.035 467.291 528.122 469.413 538.538C469.929 541.071 474.323 538.626 477.701 539.98C479.299 541.83 478.771 541.707 479 544.747C477.099 544.87 475.196 544.952 473.292 544.993C465.228 545.162 462.349 542.466 462.272 534.162C462.182 524.474 462.293 514.752 462.311 505.065C459.145 504.977 455.738 505.783 453.124 504.633C451.687 502.853 452.169 502.918 452 500.098Z" fill="#FDBD7E"/>
<path d="M224.617 512.012C230.059 511.891 231.776 512.686 236.624 514.738C232.695 523.337 231.522 515.424 223.597 517.792C217.887 519.504 216.962 529.388 219.043 534.212C220.043 536.592 222.034 538.436 224.507 539.272C228.427 540.557 231.464 539.284 234.881 537.514C235.645 539.065 236.317 540.707 237 542.298C210.936 555.167 200.399 518.225 224.617 512.012Z" fill="#BFE1AF"/>
<path d="M805.452 503L811 503.182C811 512.541 810.564 522.527 810.288 531.927C808.388 531.985 807.293 532.243 805.864 531.247C805.195 527.189 804.532 506.344 805.452 503Z" fill="#A3E4FB"/>
<path d="M563.545 534C569.544 534.723 572.099 538.838 570.563 544.731C569.022 550.642 566.078 553.763 561.03 557L560.532 556.811C556.716 549.976 563.07 551.514 563.987 545.534C558.745 541.213 556.247 538.62 563.545 534Z" fill="#FDBD7E"/>
<path d="M866.307 501.006C870.836 500.876 874.883 502.727 873.832 508.318C872.926 513.123 870.759 514.917 866.924 517.477L865.951 518C864.411 517.556 865.1 517.955 864.078 516.425C864.117 514.428 866.345 511.936 867.618 510.107C865.923 508.313 864.522 507.548 864 505.027C864.317 503.008 864.978 502.541 866.307 501.006Z" fill="#FBFDFE"/>
<path d="M879.085 501.048C883.725 500.743 888.73 501.778 887.911 507.193C887.106 512.489 884.109 514.583 879.633 517.48L878.266 518C876.51 517.502 877.347 517.87 876 516.093C876.22 512.019 881.345 513.609 880.124 508.342C878.6 507.142 877.731 506.69 877.058 504.975C877.347 502.933 877.738 502.678 879.085 501.048Z" fill="#FBFDFE"/>
<path d="M358.826 498C359.202 498.217 360.531 499.546 360.94 499.935C361.408 502.038 359.012 503.285 358.427 505.59C357.613 508.792 359.609 509.625 360.187 512.701C359.369 515.04 359.71 514.264 357.788 516C347.291 513.569 353.207 502.917 358.826 498Z" fill="#FED768"/>
<path d="M370.992 498C371.732 498.742 372.312 499.463 372.993 500.262C373.131 502.694 371.218 505.181 369.913 507.526C371.049 509.404 372.434 511.151 372.379 513.245C370.974 515.311 371.347 514.691 368.784 516C357.376 512.551 365.423 502.608 370.992 498Z" fill="#FED768"/>
<path d="M835.081 500.156C836.907 500.059 838.591 499.679 840.02 500.637C841.896 503.79 840.518 512.082 840.427 516.917C838.76 516.992 838.223 517.158 836.647 516.608C834.403 513.638 835.115 504.271 835.081 500.156Z" fill="#F4EDCD"/>
<path d="M847 500.134C848.643 500.044 849.941 499.671 851.228 500.764C852.82 504.174 851.5 512.297 851.228 516.928C849.772 517.008 849.655 517.116 848.278 516.66C846.71 514.082 847.295 504.597 847 500.134Z" fill="#F4EDCD"/>
<path d="M805.363 536.006C811.078 535.845 814.242 538.734 810.137 545C804.284 544.988 800.195 542.589 805.363 536.006Z" fill="#A3E4FB"/>
</g>
<defs>
<filter id="filter0_di_3_2" x="13" y="16" width="1003" height="1003" filterUnits="userSpaceOnUse" color-interpolation-filters="sRGB">
<feFlood flood-opacity="0" result="BackgroundImageFix"/>
<feColorMatrix in="SourceAlpha" type="matrix" values="0 0 0 0 0 0 0 0 0 0 0 0 0 0 0 0 0 0 127 0" result="hardAlpha"/>
<feMorphology radius="1" operator="dilate" in="SourceAlpha" result="effect1_dropShadow_3_2"/>
<feOffset dy="4"/>
<feGaussianBlur stdDeviation="8.5"/>
<feComposite in2="hardAlpha" operator="out"/>
<feColorMatrix type="matrix" values="0 0 0 0 0 0 0 0 0 0 0 0 0 0 0 0 0 0 0.91 0"/>
<feBlend mode="normal" in2="BackgroundImageFix" result="effect1_dropShadow_3_2"/>
<feBlend mode="normal" in="SourceGraphic" in2="effect1_dropShadow_3_2" result="shape"/>
<feColorMatrix in="SourceAlpha" type="matrix" values="0 0 0 0 0 0 0 0 0 0 0 0 0 0 0 0 0 0 127 0" result="hardAlpha"/>
<feMorphology radius="11" operator="erode" in="SourceAlpha" result="effect2_innerShadow_3_2"/>
<feOffset dy="4"/>
<feGaussianBlur stdDeviation="2"/>
<feComposite in2="hardAlpha" operator="arithmetic" k2="-1" k3="1"/>
<feColorMatrix type="matrix" values="0 0 0 0 0.0517568 0 0 0 0 0.0470262 0 0 0 0 0.0470262 0 0 0 0.25 0"/>
<feBlend mode="normal" in2="shape" result="effect2_innerShadow_3_2"/>
</filter>
<filter id="filter1_d_3_2" x="132" y="667" width="369" height="114" filterUnits="userSpaceOnUse" color-interpolation-filters="sRGB">
<feFlood flood-opacity="0" result="BackgroundImageFix"/>
<feColorMatrix in="SourceAlpha" type="matrix" values="0 0 0 0 0 0 0 0 0 0 0 0 0 0 0 0 0 0 127 0" result="hardAlpha"/>
<feMorphology radius="3" operator="dilate" in="SourceAlpha" result="effect1_dropShadow_3_2"/>
<feOffset dy="4"/>
<feGaussianBlur stdDeviation="3"/>
<feComposite in2="hardAlpha" operator="out"/>
<feColorMatrix type="matrix" values="0 0 0 0 0 0 0 0 0 0 0 0 0 0 0 0 0 0 0.25 0"/>
<feBlend mode="normal" in2="BackgroundImageFix" result="effect1_dropShadow_3_2"/>
<feBlend mode="normal" in="SourceGraphic" in2="effect1_dropShadow_3_2" result="shape"/>
</filter>
<filter id="filter2_d_3_2" x="750.427" y="755.372" width="97.0042" height="154.477" filterUnits="userSpaceOnUse" color-interpolation-filters="sRGB">
<feFlood flood-opacity="0" result="BackgroundImageFix"/>
<feColorMatrix in="SourceAlpha" type="matrix" values="0 0 0 0 0 0 0 0 0 0 0 0 0 0 0 0 0 0 127 0" result="hardAlpha"/>
<feOffset dy="2"/>
<feGaussianBlur stdDeviation="3"/>
<feComposite in2="hardAlpha" operator="out"/>
<feColorMatrix type="matrix" values="0 0 0 0 0 0 0 0 0 0 0 0 0 0 0 0 0 0 0.47 0"/>
<feBlend mode="normal" in2="BackgroundImageFix" result="effect1_dropShadow_3_2"/>
<feBlend mode="normal" in="SourceGraphic" in2="effect1_dropShadow_3_2" result="shape"/>
</filter>
<filter id="filter3_d_3_2" x="676.013" y="780.73" width="81.3949" height="104.316" filterUnits="userSpaceOnUse" color-interpolation-filters="sRGB">
<feFlood flood-opacity="0" result="BackgroundImageFix"/>
<feColorMatrix in="SourceAlpha" type="matrix" values="0 0 0 0 0 0 0 0 0 0 0 0 0 0 0 0 0 0 127 0" result="hardAlpha"/>
<feOffset dy="2"/>
<feGaussianBlur stdDeviation="3"/>
<feComposite in2="hardAlpha" operator="out"/>
<feColorMatrix type="matrix" values="0 0 0 0 0 0 0 0 0 0 0 0 0 0 0 0 0 0 0.47 0"/>
<feBlend mode="normal" in2="BackgroundImageFix" result="effect1_dropShadow_3_2"/>
<feBlend mode="normal" in="SourceGraphic" in2="effect1_dropShadow_3_2" result="shape"/>
</filter>
<filter id="filter4_d_3_2" x="844.057" y="780.588" width="80.3989" height="104.471" filterUnits="userSpaceOnUse" color-interpolation-filters="sRGB">
<feFlood flood-opacity="0" result="BackgroundImageFix"/>
<feColorMatrix in="SourceAlpha" type="matrix" values="0 0 0 0 0 0 0 0 0 0 0 0 0 0 0 0 0 0 127 0" result="hardAlpha"/>
<feOffset dy="2"/>
<feGaussianBlur stdDeviation="3"/>
<feComposite in2="hardAlpha" operator="out"/>
<feColorMatrix type="matrix" values="0 0 0 0 0 0 0 0 0 0 0 0 0 0 0 0 0 0 0.47 0"/>
<feBlend mode="normal" in2="BackgroundImageFix" result="effect1_dropShadow_3_2"/>
<feBlend mode="normal" in="SourceGraphic" in2="effect1_dropShadow_3_2" result="shape"/>
</filter>
<linearGradient id="paint0_linear_3_2" x1="898.627" y1="64.2867" x2="85.045" y2="934.819" gradientUnits="userSpaceOnUse">
<stop stop-color="#1A476E"/>
<stop offset="1" stop-color="#030D0E"/>
</linearGradient>
<linearGradient id="paint1_linear_3_2" x1="837.027" y1="88.113" x2="514.5" y2="997" gradientUnits="userSpaceOnUse">
<stop offset="0.00333043" stop-color="#7F9EC0"/>
<stop offset="1" stop-color="#0D2947"/>
</linearGradient>
<linearGradient id="paint2_linear_3_2" x1="316.652" y1="723.54" x2="327.989" y2="651.303" gradientUnits="userSpaceOnUse">
<stop stop-color="#3F5262"/>
<stop offset="1" stop-color="#667F9D"/>
</linearGradient>
<linearGradient id="paint3_linear_3_2" x1="308.169" y1="730.333" x2="314.482" y2="783.403" gradientUnits="userSpaceOnUse">
<stop stop-color="#4A383B"/>
<stop offset="1" stop-color="#1E4966"/>
</linearGradient>
<linearGradient id="paint4_linear_3_2" x1="171.943" y1="768.681" x2="173.863" y2="762.672" gradientUnits="userSpaceOnUse">
<stop stop-color="#201F21"/>
<stop offset="1" stop-color="#2D212B"/>
</linearGradient>
<linearGradient id="paint5_linear_3_2" x1="162.89" y1="748.185" x2="133.363" y2="697.721" gradientUnits="userSpaceOnUse">
<stop stop-color="#352120"/>
<stop offset="1" stop-color="#5A4E53"/>
</linearGradient>
<linearGradient id="paint6_linear_3_2" x1="115.347" y1="578.251" x2="114.018" y2="548.378" gradientUnits="userSpaceOnUse">
<stop stop-color="#9EFF42"/>
<stop offset="1" stop-color="#84FF90"/>
</linearGradient>
<linearGradient id="paint7_linear_3_2" x1="182.845" y1="246.375" x2="138.106" y2="172.74" gradientUnits="userSpaceOnUse">
<stop stop-color="#54A2EB"/>
<stop offset="1" stop-color="#97D7FC"/>
</linearGradient>
<linearGradient id="paint8_linear_3_2" x1="198.394" y1="176.986" x2="149.699" y2="124.107" gradientUnits="userSpaceOnUse">
<stop stop-color="#6AB7F6"/>
<stop offset="1" stop-color="#9DDBFB"/>
</linearGradient>
<linearGradient id="paint9_linear_3_2" x1="798.929" y1="759.372" x2="798.929" y2="901.848" gradientUnits="userSpaceOnUse">
<stop offset="0.1875" stop-color="white"/>
<stop offset="1"/>
</linearGradient>
<linearGradient id="paint10_linear_3_2" x1="779.586" y1="841.716" x2="779.586" y2="901.848" gradientUnits="userSpaceOnUse">
<stop offset="0.1875" stop-color="white"/>
<stop offset="1"/>
</linearGradient>
<linearGradient id="paint11_linear_3_2" x1="826.85" y1="759.372" x2="826.85" y2="784.799" gradientUnits="userSpaceOnUse">
<stop offset="0.1875" stop-color="white"/>
<stop offset="1"/>
</linearGradient>
<linearGradient id="paint12_linear_3_2" x1="716.711" y1="784.73" x2="716.711" y2="877.046" gradientUnits="userSpaceOnUse">
<stop offset="0.1875" stop-color="white"/>
<stop offset="1"/>
</linearGradient>
<linearGradient id="paint13_linear_3_2" x1="722.195" y1="832.576" x2="722.195" y2="877.046" gradientUnits="userSpaceOnUse">
<stop offset="0.1875" stop-color="white"/>
<stop offset="1"/>
</linearGradient>
<linearGradient id="paint14_linear_3_2" x1="726.911" y1="832.576" x2="726.911" y2="864.164" gradientUnits="userSpaceOnUse">
<stop offset="0.1875" stop-color="white"/>
<stop offset="1"/>
</linearGradient>
<linearGradient id="paint15_linear_3_2" x1="884.257" y1="784.588" x2="884.257" y2="877.06" gradientUnits="userSpaceOnUse">
<stop offset="0.1875" stop-color="white"/>
<stop offset="1"/>
</linearGradient>
<linearGradient id="paint16_linear_3_2" x1="884.257" y1="829.008" x2="884.257" y2="877.059" gradientUnits="userSpaceOnUse">
<stop offset="0.1875" stop-color="white"/>
<stop offset="1"/>
</linearGradient>
<linearGradient id="paint17_linear_3_2" x1="873.978" y1="831.513" x2="873.978" y2="864.977" gradientUnits="userSpaceOnUse">
<stop offset="0.1875" stop-color="white"/>
<stop offset="1"/>
</linearGradient>
<linearGradient id="paint18_linear_3_2" x1="884.336" y1="784.588" x2="884.336" y2="828.27" gradientUnits="userSpaceOnUse">
<stop offset="0.1875" stop-color="white"/>
<stop offset="1"/>
</linearGradient>
<clipPath id="clip0_3_2">
<rect width="1024" height="1024" fill="white"/>
</clipPath>
</defs>
</svg>
